<mxfile host="app.diagrams.net" modified="2023-11-06T14:23:01.071Z" agent="Mozilla/5.0 (Windows NT 10.0; Win64; x64) AppleWebKit/537.36 (KHTML, like Gecko) Chrome/118.0.0.0 Safari/537.36" version="22.0.8" etag="F49s0ntNZETpd0h1yV8r" type="github">
  <diagram name="Page-1" id="dWIIapuWDEiXtsh_QfZF">
    <mxGraphModel>
      <root>
        <mxCell id="0" />
        <mxCell id="1" parent="0" />
      </root>
    </mxGraphModel>
  </diagram>
</mxfile>
